<svg xmlns="http://www.w3.org/2000/svg" width="40" height="40">
  <defs>
    <style>
      .cls-1 {
        fill: gray;
        fill-rule: evenodd;
      }
    </style>
  </defs>
  <path id="icon_adverse_effects__2x" data-name="icon_adverse_effects_@2x" class="cls-1" d="M913.407,188.11c7.673,0.149,14.152,1.962,15.606,4.707,0.534,1.009,3.982,11.466,3.982,11.466s-2.975,6.813-19.44,6.71c-17.96-.112-20.479-6.459-20.479-6.459s4.07-11.1,4.31-11.695C898.355,190.444,906.373,187.974,913.407,188.11Zm-0.078.007a34.363,34.363,0,0,1,7.251.673s-5.023,5.942-7.074,5.963c-2.335.025-7.064-6.053-7.064-6.053S908.074,188.065,913.329,188.117Zm0.207-17.1c4.551,0,8.24,4.229,8.24,9.445s-3.615,10.023-8.166,10.023-8.314-4.806-8.314-10.023S908.985,171.018,913.536,171.018Zm-0.031,1.969c3.428,0,6.208,3.351,6.208,7.484s-2.727,8.036-6.155,8.036-6.261-3.9-6.261-8.036S910.076,172.987,913.505,172.987Z" transform="translate(-893.062 -171.031)"/>
</svg>
