<svg xmlns="http://www.w3.org/2000/svg" width="39.719" height="40.5" viewBox="0 0 39.719 40.5">
  <defs>
    <style>
      .cls-1 {
        fill: gray;
        fill-rule: evenodd;
      }
    </style>
  </defs>
  <path id="icon_dosage_2x" data-name="icon_dosage@2x" class="cls-1" d="M927.778,121.934l-8.562-8.885a0.861,0.861,0,0,0-1.239,0l-1.241,1.271a0.917,0.917,0,0,0,0,1.272l8.561,8.885a0.861,0.861,0,0,0,1.24,0l1.184-1.2A1.009,1.009,0,0,0,927.778,121.934Zm0.926-6.1-3.686-3.377-3.467,3.253,3.625,3.8Zm3.54-.327-6.7-6.626a1.5,1.5,0,0,0-2.129,0,1.532,1.532,0,0,0,0,2.15l6.7,6.626a1.5,1.5,0,0,0,2.129,0A1.531,1.531,0,0,0,932.244,115.508Zm-7.7,8.107-7.069-7.074-14.439,14.431a2,2,0,0,0,0,2.828l4.241,4.244a2,2,0,0,0,2.828,0Zm-1.164-1.165-4.866-4.994-9.739,10.069,4.81,4.613ZM907.3,137.9l-4.242-4.244-2.122,2.12,4.242,4.244Zm-2.35-.825-1.115-1.085-10.817,11.038,0.023,1.909Zm9.088-10.126-2.5-2.623-1.414,1.414,2.5,2.622Zm5.619-5.492-2.5-2.622-1.414,1.414,2.5,2.622Zm-2.872,2.746-2.5-2.622L912.872,123l2.5,2.622Z" transform="translate(-893 -108.438)"/>
</svg>
