<svg xmlns="http://www.w3.org/2000/svg" width="40" height="45">
  <defs>
    <style>
      .cls-1 {
        fill: gray;
        fill-rule: evenodd;
      }
    </style>
  </defs>
  <path id="icon_pharmacology_2x" data-name="icon_pharmacology@2x" class="cls-1" d="M907.654,348.723a2.7,2.7,0,0,1,1.84-.709l7.4-.01a1.967,1.967,0,0,1,1.514.588,2.7,2.7,0,0,1,.59,1.945v8.434l13.93,26.99s1.336,7.033-19.91,7.032c-21.821,0-19.947-7.055-19.947-7.055l13.924-26.956-0.014-8.433A3.324,3.324,0,0,1,907.654,348.723Zm1.292,10.357,0.04-9.062,7.984,0,0.022,9,14.15,27.469s-2.075,4.569-18.079,4.581c-16.163.012-18.069-4.613-18.069-4.613Zm-2.6,9.945,13.309-.017,8.726,16.783s-1.913,3.081-15.42,3.135c-12.44.05-15.318-2.929-15.318-2.929Zm9.813,2.944a2.125,2.125,0,1,1-2.094,2.125A2.109,2.109,0,0,1,916.156,371.969Zm-1.515,8.562A2.641,2.641,0,1,1,912,383.172,2.64,2.64,0,0,1,914.641,380.531Zm-5.328-5.375a2.641,2.641,0,1,1-2.626,2.641A2.634,2.634,0,0,1,909.313,375.156Z" transform="translate(-893.031 -348)"/>
</svg>
