<?xml version="1.0" standalone="no"?>
<!DOCTYPE svg PUBLIC "-//W3C//DTD SVG 1.1//EN" "http://www.w3.org/Graphics/SVG/1.1/DTD/svg11.dtd" >
<svg xmlns="http://www.w3.org/2000/svg">
<metadata>Generated by IcoMoon</metadata>
<defs>
<font id="icomoon" horiz-adv-x="1024">
<font-face units-per-em="1024" ascent="960" descent="-64" />
<missing-glyph horiz-adv-x="1024" />
<glyph unicode="&#x20;" horiz-adv-x="512" d="" />
<glyph unicode="&#xe600;" glyph-name="flashplayer" d="M928 768h-32q-46 0-88-23.5t-75.5-63.5-57.5-81-45-88h170q13 0 22.5-9.5t9.5-22.5v-128q0-13-9.5-22.5t-22.5-9.5h-238q-9-19-21.5-50t-21-53-22.5-51.5-27-51-32-47-39.5-43.5-49-35.5-60.5-28.5-73-17.5-88-6.5h-32q-13 0-22.5 9.5t-9.5 22.5v128q0 13 9.5 22.5t22.5 9.5h32q50 0 99 31.5t86 80.5 63.5 103.5 39.5 104.5q8 33 19.5 69t33.5 88 48.5 98.5 65.5 95 83.5 83 104 56.5 125.5 22h32q13 0 22.5-9.5t9.5-22.5v-128q0-13-9.5-22.5t-22.5-9.5z" />
<glyph unicode="&#xe601;" glyph-name="minus" horiz-adv-x="805" d="M804.571 539.429v-109.714q0-22.857-16-38.857t-38.857-16h-694.857q-22.857 0-38.857 16t-16 38.857v109.714q0 22.857 16 38.857t38.857 16h694.857q22.857 0 38.857-16t16-38.857z" />
<glyph unicode="&#xe602;" glyph-name="filter" horiz-adv-x="805" d="M801.714 791.429q9.714-23.429-8-40l-281.714-281.714v-424q0-24-22.286-33.714-7.429-2.857-14.286-2.857-15.429 0-25.714 10.857l-146.286 146.286q-10.857 10.857-10.857 25.714v277.714l-281.714 281.714q-17.714 16.571-8 40 9.714 22.286 33.714 22.286h731.429q24 0 33.714-22.286z" />
<glyph unicode="&#xe603;" glyph-name="cog" d="M863.68 364.32c68.992-51.424 128.128-98.496 128.128-98.496l-84.192-147.648-152.16 67.168-140.992-82.464c-9.536-86.944-18.272-166.88-18.272-166.88h-168.384l-18.688 167.392-138.944 82.656-153.824-67.904-84.16 147.648c0 0 58.144 46.848 126.976 98.112v168.288l-126.976 97.92 84.16 147.68 150.144-66.816 149.056 80.864 12.256 168.16h168.384l12.192-167.456 147.008-82.496 152.256 67.776 84.192-147.68-128.128-98.272v-167.552zM512 576c-70.688 0-128-57.312-128-128s57.312-128 128-128 128 57.312 128 128-57.312 128-128 128z" />
<glyph unicode="&#xe604;" glyph-name="user" d="M889.366 222.080c-61.846 80.854-141.654 122.666-276.458 136.106-24.342 4.886-42.666 26.454-42.666 52.054 0 18.752 60.138 74.88 59.712 75.286 62.078 64.234 95.38 168.554 95.38 248.768 0 124.586-100.268 225.706-224 225.706s-224-101.12-224-225.706c0-80.64 32.426-185.6 95.146-249.814 0 0 59.946-55.488 59.946-74.218 0-27.114-20.48-49.706-46.934-52.906-132.054-13.866-210.986-55.466-272.214-135.254-17.704-23.062-27.304-69.356-27.944-94.102 0.214-6.4 0-106.666 0-106.666 0-47.146 38.186-85.334 85.334-85.334h661.334c47.146 0 85.334 38.186 85.334 85.334 0 0-0.214 100.266 0 106.666-0.622 24.746-10.242 71.040-27.97 94.080z" />
<glyph unicode="&#xe605;" glyph-name="plus" horiz-adv-x="805" d="M804.571 539.429v-109.714q0-22.857-16-38.857t-38.857-16h-237.714v-237.714q0-22.857-16-38.857t-38.857-16h-109.714q-22.857 0-38.857 16t-16 38.857v237.714h-237.714q-22.857 0-38.857 16t-16 38.857v109.714q0 22.857 16 38.857t38.857 16h237.714v237.714q0 22.857 16 38.857t38.857 16h109.714q22.857 0 38.857-16t16-38.857v-237.714h237.714q22.857 0 38.857-16t16-38.857z" />
<glyph unicode="&#xe606;" glyph-name="facebook" horiz-adv-x="439" d="M292 642.286h146.857l-17.143-162.286h-129.714v-470.857h-194.857v470.857h-97.143v162.286h97.143v97.714q0 104 49.143 157.429t161.714 53.429h129.714v-162.286h-81.143q-22.286 0-35.714-3.714t-19.429-13.429-7.714-19.714-1.714-28.286v-81.143z" />
<glyph unicode="&#xe607;" glyph-name="envelope-alt" d="M1024 554.286v-453.714q0-37.714-26.857-64.571t-64.571-26.857h-841.143q-37.714 0-64.571 26.857t-26.857 64.571v453.714q25.143-28 57.714-49.714 206.857-140.571 284-197.143 32.571-24 52.857-37.429t54-27.429 62.857-14h1.143q29.143 0 62.857 14t54 27.429 52.857 37.429q97.143 70.286 284.571 197.143 32.571 22.286 57.143 49.714zM1024 722.286q0-45.143-28-86.286t-69.714-70.286q-214.857-149.143-267.429-185.714-5.714-4-24.286-17.429t-30.857-21.714-29.714-18.571-32.857-15.429-28.571-5.143h-1.143q-13.143 0-28.571 5.143t-32.857 15.429-29.714 18.571-30.857 21.714-24.286 17.429q-52 36.571-149.714 104.286t-117.143 81.429q-35.429 24-66.857 66t-31.429 78q0 44.571 23.714 74.286t67.714 29.714h841.143q37.143 0 64.286-26.857t27.143-64.571z" />
<glyph unicode="&#xe608;" glyph-name="share-alt" d="M1024 594.286q0-14.857-10.857-25.714l-292.571-292.571q-10.857-10.857-25.714-10.857t-25.714 10.857-10.857 25.714v146.286h-128q-56 0-100.286-3.429t-88-12.286-76-24.286-60.286-39.714-45.714-57.714-27.714-79.143-10-103.429q0-31.429 2.857-70.286 0-3.429 1.429-13.429t1.429-15.143q0-8.571-4.857-14.286t-13.429-5.714q-9.143 0-16 9.714-4 5.143-7.429 12.571t-7.714 17.143-6 13.714q-72.571 162.857-72.571 257.714 0 113.714 30.286 190.286 92.571 230.286 500 230.286h128v146.286q0 14.857 10.857 25.714t25.714 10.857 25.714-10.857l292.571-292.571q10.857-10.857 10.857-25.714z" />
<glyph unicode="&#xe609;" glyph-name="copyright" d="M512-64q-139 0-257 68.5t-186.5 186.5-68.5 257 68.5 257 186.5 186.5 257 68.5 257-68.5 186.5-186.5 68.5-257-68.5-257-186.5-186.5-257-68.5zM512 832q-104 0-192.5-51.5t-140-140-51.5-192.5 51.5-192.5 140-140 192.5-51.5 192.5 51.5 140 140 51.5 192.5-51.5 192.5-140 140-192.5 51.5zM734 528q-6-21-23-34.5t-39-13.5q-8 0-16 3t-13 6-11.5 10-9 10-7 10.5-5.5 8.5q-39 48-98 48-53 0-90.5-37.5t-37.5-90.5 37.5-90.5 90.5-37.5q59 0 98 48 2 2 9.5 13.5t12.5 17 16 11.5 24 6q22 0 39-13.5t23-34.5q1-4 2-11t-3.5-23.5-18.5-29.5q-37-50-90-81t-112-31q-106 0-181 75t-75 181 75 181 181 75q61 0 114.5-31.5t90.5-83.5q12-11 16-26.5t2-25.5z" />
<glyph unicode="&#xe60a;" glyph-name="print" d="M256 896h512v-128h-512zM960 704h-896c-35.2 0-64-28.8-64-64v-320c0-35.2 28.796-64 64-64h192v-256h512v256h192c35.2 0 64 28.8 64 64v320c0 35.2-28.8 64-64 64zM704 64h-384v320h384v-320zM974.4 608c0-25.626-20.774-46.4-46.398-46.4-25.626 0-46.402 20.774-46.402 46.4s20.776 46.4 46.402 46.4c25.626 0 46.398-20.774 46.398-46.4z" />
<glyph unicode="&#xe60b;" glyph-name="twitter" horiz-adv-x="951" d="M925.714 726.857q-38.286-56-92.571-95.429 0.571-8 0.571-24 0-74.286-21.714-148.286t-66-142-105.429-120.286-147.429-83.429-184.571-31.143q-154.857 0-283.429 82.857 20-2.286 44.571-2.286 128.571 0 229.143 78.857-60 1.143-107.429 36.857t-65.143 91.143q18.857-2.857 34.857-2.857 24.571 0 48.571 6.286-64 13.143-106 63.714t-42 117.429v2.286q38.857-21.714 83.429-23.429-37.714 25.143-60 65.714t-22.286 88q0 50.286 25.143 93.143 69.143-85.143 168.286-136.286t212.286-56.857q-4.571 21.714-4.571 42.286 0 76.571 54 130.571t130.571 54q80 0 134.857-58.286 62.286 12 117.143 44.571-21.143-65.714-81.143-101.714 53.143 5.714 106.286 28.571z" />
<glyph unicode="&#xe60c;" glyph-name="institution" horiz-adv-x="1396" d="M1396.364 558.107v112.222l-698.182 280.528-698.182-280.528v-112.222h161.14v-462.942h-161.14v-168.308h1396.364v168.308h-161.138v462.942h161.138zM375.944 558.107h214.81v-462.942h-214.81v462.942zM1020.42 95.165h-214.812v462.942h214.812v-462.942z" />
<glyph unicode="&#xe60d;" glyph-name="rss" horiz-adv-x="805" d="M219.429 192q0-45.714-32-77.714t-77.714-32-77.714 32-32 77.714 32 77.714 77.714 32 77.714-32 32-77.714zM512 121.714q1.143-16-9.714-27.429-10.286-12-26.857-12h-77.143q-14.286 0-24.571 9.429t-11.429 23.714q-12.571 130.857-105.429 223.714t-223.714 105.429q-14.286 1.143-23.714 11.429t-9.429 24.571v77.143q0 16.571 12 26.857 9.714 9.714 24.571 9.714h2.857q91.429-7.429 174.857-46t148-103.714q65.143-64.571 103.714-148t46-174.857zM804.571 120.571q1.143-15.429-10.286-26.857-10.286-11.429-26.286-11.429h-81.714q-14.857 0-25.429 10t-11.143 24.286q-6.857 122.857-57.714 233.429t-132.286 192-192 132.286-233.429 58.286q-14.286 0.571-24.286 11.143t-10 24.857v81.714q0 16 11.429 26.286 10.286 10.286 25.143 10.286h1.714q149.714-7.429 286.571-68.571t243.143-168q106.857-106.286 168-243.143t68.571-286.571z" />
<glyph unicode="&#xe60e;" glyph-name="popup" d="M819.2 857.6h-410.624c-56.32 0-101.376-45.056-101.376-101.376v-410.624c0-56.32 46.080-102.4 102.4-102.4h409.6c56.32 0 102.4 46.080 102.4 102.4v409.6c0 56.32-46.080 102.4-102.4 102.4zM819.2 345.6h-409.6v409.6h409.6v-409.6zM204.8 448h-102.4v-307.2c0-56.32 46.080-102.4 102.4-102.4h307.2v102.4h-307.2v307.2z" />
<glyph unicode="&#xe60f;" glyph-name="file-pdf" d="M842.012 370.52c-13.648 13.446-43.914 20.566-89.972 21.172-31.178 0.344-68.702-2.402-108.17-7.928-17.674 10.198-35.892 21.294-50.188 34.658-38.462 35.916-70.568 85.772-90.576 140.594 1.304 5.12 2.414 9.62 3.448 14.212 0 0 21.666 123.060 15.93 164.666-0.79 5.706-1.274 7.362-2.808 11.796l-1.882 4.834c-5.896 13.592-17.448 27.994-35.566 27.208l-10.916 0.344c-20.2 0-36.664-10.332-40.986-25.774-13.138-48.434 0.418-120.892 24.982-214.738l-6.288-15.286c-17.588-42.876-39.63-86.060-59.078-124.158l-2.528-4.952c-20.46-40.038-39.024-74.026-55.854-102.822l-17.376-9.188c-1.264-0.668-31.044-16.418-38.028-20.644-59.256-35.382-98.522-75.54-105.036-107.416-2.072-10.17-0.53-23.186 10.014-29.214l16.806-8.458c7.29-3.652 14.978-5.502 22.854-5.502 42.204 0 91.2 52.572 158.696 170.366 77.93 25.368 166.654 46.456 244.414 58.090 59.258-33.368 132.142-56.546 178.142-56.546 8.168 0 15.212 0.778 20.932 2.296 8.822 2.336 16.258 7.366 20.792 14.192 8.926 13.432 10.734 31.932 8.312 50.876-0.722 5.624-5.212 12.576-10.070 17.322zM211.646 145.952c7.696 21.042 38.16 62.644 83.204 99.556 2.832 2.296 9.808 8.832 16.194 14.902-47.102-75.124-78.646-105.066-99.398-114.458zM478.434 760.314c13.566 0 21.284-34.194 21.924-66.254s-6.858-54.56-16.158-71.208c-7.702 24.648-11.426 63.5-11.426 88.904 0 0-0.566 48.558 5.66 48.558zM398.852 322.506c9.45 16.916 19.282 34.756 29.33 53.678 24.492 46.316 39.958 82.556 51.478 112.346 22.91-41.684 51.444-77.12 84.986-105.512 4.184-3.542 8.618-7.102 13.274-10.65-68.21-13.496-127.164-29.91-179.068-49.862zM828.904 326.348c-4.154-2.598-16.054-4.1-23.708-4.1-24.706 0-55.272 11.294-98.126 29.666 16.468 1.218 31.562 1.838 45.1 1.838 24.782 0 32.12 0.108 56.35-6.072s24.538-18.734 20.384-21.332zM903.432 760.57l-142.864 142.862c-31.112 31.112-92.568 56.568-136.568 56.568h-480c-44 0-80-36-80-80v-864c0-44 36-80 80-80h736c44 0 80 36 80 80v608c0 44-25.456 105.458-56.568 136.57zM858.178 715.314c3.13-3.13 6.25-6.974 9.28-11.314h-163.458v163.456c4.34-3.030 8.184-6.15 11.314-9.28l142.864-142.862zM896 16c0-8.672-7.328-16-16-16h-736c-8.672 0-16 7.328-16 16v864c0 8.672 7.328 16 16 16h480c4.832 0 10.254-0.61 16-1.704v-254.296h254.296c1.094-5.746 1.704-11.166 1.704-16v-608z" />
<glyph unicode="&#xe610;" glyph-name="menu" d="M64 719.364h896v-79.364h-896v79.364zM64 487.682h896v-79.364h-896v79.364zM64 255.364h896v-79.364h-896v79.364z" />
<glyph unicode="&#xe611;" glyph-name="house" d="M961.024 432.64l-410.829 411.187c-20.992 21.811-55.347 21.811-76.339 0l-410.88-411.187c-21.043-21.76-13.21-39.629 17.408-39.629h85.658v-315.802c0-22.784 0.973-41.421 42.189-41.421h199.424v316.826h208.64v-316.826h209.357c31.437 0 32.307 18.586 32.307 41.421v315.802h85.606c30.566 0 38.451 17.818 17.459 39.629z" />
<glyph unicode="&#xe612;" glyph-name="volume-high" horiz-adv-x="1088" d="M890.040 37.96c-12.286 0-24.568 4.686-33.942 14.058-18.744 18.746-18.744 49.136 0 67.882 87.638 87.642 135.904 204.16 135.904 328.1 0 123.938-48.266 240.458-135.904 328.098-18.744 18.746-18.744 49.138 0 67.882s49.138 18.744 67.882 0c105.77-105.772 164.022-246.4 164.022-395.98 0-149.582-58.252-290.208-164.022-395.98-9.372-9.374-21.656-14.060-33.94-14.060zM719.53 128.47c-12.286 0-24.568 4.686-33.942 14.058-18.744 18.744-18.744 49.136 0 67.882 131.006 131.006 131.006 344.17 0 475.176-18.744 18.746-18.744 49.138 0 67.882 18.744 18.742 49.138 18.744 67.882 0 81.594-81.592 126.53-190.076 126.53-305.468 0-115.39-44.936-223.876-126.53-305.47-9.372-9.374-21.656-14.060-33.94-14.060zM549.020 218.98c-12.286 0-24.568 4.686-33.942 14.058-18.746 18.746-18.746 49.136 0 67.882 81.1 81.1 81.1 213.058 0 294.156-18.746 18.746-18.746 49.138 0 67.882s49.136 18.744 67.882 0c118.53-118.53 118.53-311.392 0-429.922-9.372-9.37-21.656-14.056-33.94-14.056zM401.332 881.332c25.668 25.668 46.668 16.968 46.668-19.332v-828c0-36.3-21-44.998-46.668-19.33l-241.332 241.33h-160v384h160l241.332 241.332z" />
<glyph unicode="&#xe613;" glyph-name="play" d="M512 960c-282.77 0-512-229.23-512-512s229.23-512 512-512 512 229.23 512 512-229.23 512-512 512zM512 32c-229.75 0-416 186.25-416 416s186.25 416 416 416 416-186.25 416-416-186.25-416-416-416zM384 672l384-224-384-224z" />
<glyph unicode="&#xe614;" glyph-name="file-excel" d="M743.028 576h-135.294l-95.732-141.032-95.74 141.032h-135.288l162.162-242.464-182.974-269.536h262.24v91.576h-60.556l50.156 74.994 111.396-166.57h140.442l-182.976 269.536zM903.432 760.57l-142.864 142.862c-31.112 31.112-92.568 56.568-136.568 56.568h-480c-44 0-80-36-80-80v-864c0-44 36-80 80-80h736c44 0 80 36 80 80v608c0 44-25.456 105.458-56.568 136.57zM858.178 715.314c3.13-3.13 6.25-6.974 9.28-11.314h-163.458v163.456c4.34-3.030 8.184-6.15 11.314-9.28l142.864-142.862zM896 16c0-8.672-7.328-16-16-16h-736c-8.672 0-16 7.328-16 16v864c0 8.672 7.328 16 16 16h480c4.832 0 10.254-0.61 16-1.704v-254.296h254.296c1.094-5.746 1.704-11.166 1.704-16v-608z" />
<glyph unicode="&#xe615;" glyph-name="play2" d="M981.188 799.892c-143.632 20.65-302.332 32.108-469.186 32.108-166.86 0-325.556-11.458-469.194-32.108-27.53-107.726-42.808-226.75-42.808-351.892 0-125.14 15.278-244.166 42.808-351.89 143.638-20.652 302.336-32.11 469.194-32.11 166.854 0 325.552 11.458 469.186 32.11 27.532 107.724 42.812 226.75 42.812 351.89 0 125.142-15.28 244.166-42.812 351.892zM384.002 256v384l320-192-320-192z" />
<glyph unicode="&#xe616;" glyph-name="copy" d="M832 704h-192v64l-192 192h-448v-768h384v-256h640v576l-192 192zM832 613.49l101.49-101.49h-101.49v101.49zM448 869.49l101.49-101.49h-101.49v101.49zM64 896h320v-192h192v-448h-512v640zM960 0h-512v192h192v448h128v-192h192v-448z" />
<glyph unicode="&#xe617;" glyph-name="chevron-down" horiz-adv-x="951" d="M920.571 548.571q0-30.286-21.143-51.429l-372-372q-21.714-21.714-52-21.714-30.857 0-51.429 21.714l-372 372q-21.714 20.571-21.714 51.429 0 30.286 21.714 52l42.286 42.857q22.286 21.143 52 21.143 30.286 0 51.429-21.143l277.714-277.714 277.714 277.714q21.143 21.143 51.429 21.143 29.714 0 52-21.143l42.857-42.857q21.143-22.286 21.143-52z" />
<glyph unicode="&#xe618;" glyph-name="file-word" d="M639.778 484.108h44.212l-51.012-226.178-66.326 318.010h-106.55l-77.114-318.010-57.816 318.010h-111.394l113.092-511.882h108.838l76.294 302.708 68.256-302.708h100.336l129.63 511.882h-170.446zM903.432 760.57l-142.864 142.862c-31.112 31.112-92.568 56.568-136.568 56.568h-480c-44 0-80-36-80-80v-864c0-44 36-80 80-80h736c44 0 80 36 80 80v608c0 44-25.456 105.458-56.568 136.57zM858.178 715.314c3.13-3.13 6.25-6.974 9.28-11.314h-163.458v163.456c4.34-3.030 8.184-6.15 11.314-9.28l142.864-142.862zM896 16c0-8.672-7.328-16-16-16h-736c-8.672 0-16 7.328-16 16v864c0 8.672 7.328 16 16 16h480c4.832 0 10.254-0.61 16-1.704v-254.296h254.296c1.094-5.746 1.704-11.166 1.704-16v-608z" />
<glyph unicode="&#xe619;" glyph-name="search" horiz-adv-x="951" d="M658.286 475.428q0 105.714-75.143 180.857t-180.857 75.143-180.857-75.143-75.143-180.857 75.143-180.857 180.857-75.143 180.857 75.143 75.143 180.857zM950.857 0q0-29.714-21.714-51.429t-51.429-21.714q-30.857 0-51.429 21.714l-196 195.429q-102.286-70.857-228-70.857-81.714 0-156.286 31.714t-128.571 85.714-85.714 128.571-31.714 156.286 31.714 156.286 85.714 128.571 128.571 85.714 156.286 31.714 156.286-31.714 128.571-85.714 85.714-128.571 31.714-156.286q0-125.714-70.857-228l196-196q21.143-21.143 21.143-51.429z" />
<glyph unicode="&#xe61a;" glyph-name="linkedin-sign" horiz-adv-x="878" d="M135.429 142.857h132v396.571h-132v-396.571zM276 661.714q-0.571 29.714-20.571 49.143t-53.143 19.429-54-19.429-20.857-49.143q0-29.143 20.286-48.857t52.857-19.714h0.571q33.714 0 54.286 19.714t20.571 48.857zM610.286 142.857h132v227.429q0 88-41.714 133.143t-110.286 45.143q-77.714 0-119.429-66.857h1.143v57.714h-132q1.714-37.714 0-396.571h132v221.714q0 21.714 4 32 8.571 20 25.714 34t42.286 14q66.286 0 66.286-89.714v-212zM877.714 713.143v-548.571q0-68-48.286-116.286t-116.286-48.286h-548.571q-68 0-116.286 48.286t-48.286 116.286v548.571q0 68 48.286 116.286t116.286 48.286h548.571q68 0 116.286-48.286t48.286-116.286z" />
<glyph unicode="&#xe61b;" glyph-name="stethoscope" horiz-adv-x="805" d="M731.429 548.571q0 14.857-10.857 25.714t-25.714 10.857-25.714-10.857-10.857-25.714 10.857-25.714 25.714-10.857 25.714 10.857 10.857 25.714zM804.571 548.571q0-35.429-20.286-63.429t-52.857-40v-225.714q0-90.857-75.143-155.143t-180.857-64.286-180.857 64.286-75.143 155.143v75.429q-93.714 11.429-156.571 73.143t-62.857 144v292.571q0 14.857 10.857 25.714t25.714 10.857q3.429 0 9.143-1.143 9.714 17.143 26.857 27.429t37.143 10.286q30.286 0 51.714-21.429t21.429-51.714-21.429-51.714-51.714-21.429q-18.857 0-36.571 10.286v-229.714q0-60.571 53.714-103.429t129.143-42.857 129.143 42.857 53.714 103.429v229.714q-17.714-10.286-36.571-10.286-30.286 0-51.714 21.429t-21.429 51.714 21.429 51.714 51.714 21.429q20 0 37.143-10.286t26.857-27.429q5.714 1.143 9.143 1.143 14.857 0 25.714-10.857t10.857-25.714v-292.571q0-82.286-62.857-144t-156.571-73.143v-75.429q0-60.571 53.714-103.429t129.143-42.857 129.143 42.857 53.714 103.429v225.714q-32.571 12-52.857 40t-20.286 63.429q0 45.714 32 77.714t77.714 32 77.714-32 32-77.714z" />
<glyph unicode="&#xe61c;" glyph-name="tools" d="M889.056 706.048c30.688-74.016 16.064-162.368-44.128-222.56-66.272-66.272-166.432-76.64-244.288-32.704l-56.288-61.472 40.16-40.32 24 24c12.256 12.288 32.16 12.288 44.416 0l194.624-196.608c12.288-12.256 12.288-32.16 0-44.416l-88.832-88.832c-12.256-12.288-32.16-12.288-44.416 0l-194.624 196.608c-12.288 12.256-12.288 32.16 0 44.416l21.92 21.92-38.272 38.368-269.152-294.048c-24.544-24.544-64.32-24.544-88.832 0l-22.208 22.208c-24.544 24.544-24.544 64.32 0 88.832l306.624 256.8-203.648 204.192-64.32 0.032-74.432 119.68 59.904 60 122.4-74.912 0.8-62.976 206.016-206.816 59.936 50.176c-58.592 79.872-52.48 192.384 19.712 264.576 59.904 59.904 147.776 74.784 221.6 44.672l-131.968-130.144 111.072-111.072 132.224 130.4zM196.8 130.112c-12.256 12.256-32.128 12.256-44.416 0-12.288-12.288-12.288-32.16 0-44.448 12.288-12.256 32.16-12.256 44.416 0 12.288 12.32 12.288 32.192 0 44.448z" />
<glyph unicode="&#xe61d;" glyph-name="selfassess3" d="M229.938 554.316h118.752l4.688 2.766 1.468-2.766h187.294c32.812 48.728 66.348 93.074 100.518 132.97h-492.654c-29.286 0-53.038-23.75-53.038-53.038v-228.208l132.972 78.324v69.952zM523.596 50.818h156.804c29.29 0 53.034 23.754 53.034 53.042v213.746c-3.758-4.008-7.552-8.082-11.394-12.246-76.648-83.104-153.044-181.408-198.444-254.542zM248.432 183.788h-18.494v14.888c-47.56 37.306-93.414 66.246-132.972 83.1v-177.916c0-29.288 23.752-53.042 53.038-53.042h236.302c-44.248 49.476-91.578 94.898-137.874 132.97zM930.804 541.564c-49.678 110.426-21.232 200.094-14.158 303.618-291.054-144.892-475.624-579.688-475.624-579.688l-113.572 213.952-234.254-137.988c99.41-34.46 241.378-144.886 362.066-289.822 85.116 151.836 347.78 462.268 475.542 489.928z" />
<glyph unicode="&#xe61e;" glyph-name="file-powerpoint" d="M192 448h192v-64h-192v64zM192 320h192v-64h-192v64zM192 192h192v-64h-192v64zM903.432 760.57l-142.864 142.862c-31.112 31.112-92.568 56.568-136.568 56.568h-480c-44 0-80-36-80-80v-864c0-44 36-80 80-80h736c44 0 80 36 80 80v608c0 44-25.456 105.458-56.568 136.57zM858.178 715.314c3.13-3.13 6.25-6.974 9.28-11.314h-163.458v163.456c4.34-3.030 8.184-6.15 11.314-9.28l142.864-142.862zM896 16c0-8.672-7.328-16-16-16h-736c-8.672 0-16 7.328-16 16v864c0 8.672 7.328 16 16 16h480c4.832 0 10.254-0.61 16-1.704v-254.296h254.296c1.094-5.746 1.704-11.166 1.704-16v-608zM576 256h188.792c-14.826-73.032-79.386-128-156.792-128-88.366 0-160 71.634-160 160 0 77.406 54.97 141.966 128 156.792v-188.792zM672 512c88.366 0 160-71.634 160-160 0-10.958-1.108-21.66-3.208-32h-188.792v188.792c10.34 2.1 21.042 3.208 32 3.208z" />
<glyph unicode="&#xe61f;" glyph-name="camera" horiz-adv-x="1097" d="M548.571 566.857q68 0 116.286-48.286t48.286-116.286-48.286-116.286-116.286-48.286-116.286 48.286-48.286 116.286 48.286 116.286 116.286 48.286zM950.857 804.571q60.571 0 103.429-42.857t42.857-103.429v-512q0-60.571-42.857-103.429t-103.429-42.857h-804.571q-60.571 0-103.429 42.857t-42.857 103.429v512q0 60.571 42.857 103.429t103.429 42.857h128l29.143 77.714q10.857 28 39.714 48.286t59.143 20.286h292.571q30.286 0 59.143-20.286t39.714-48.286l29.143-77.714h128zM548.571 146.286q105.714 0 180.857 75.143t75.143 180.857-75.143 180.857-180.857 75.143-180.857-75.143-75.143-180.857 75.143-180.857 180.857-75.143z" />
<glyph unicode="&#xe620;" glyph-name="link" d="M953.396 885.358l-4.028 4.042c-94.148 94.134-248.194 94.134-342.326 0l-218.106-218.136c-94.134-94.132-94.134-248.176 0-342.31l4.026-4.026c7.832-7.848 16.146-14.924 24.736-21.458l79.848 79.85c-9.302 5.494-18.126 12.072-26.116 20.060l-4.042 4.042c-51.114 51.098-51.114 134.272 0 185.39l218.128 218.112c51.116 51.118 134.274 51.118 185.386 0l4.042-4.024c51.1-51.116 51.1-134.292 0-185.39l-98.686-98.686c17.132-42.308 25.248-87.4 24.538-132.386l152.604 152.604c94.134 94.136 94.134 248.178-0.004 342.316zM631.042 571.066c-7.832 7.832-16.146 14.922-24.736 21.44l-79.848-79.832c9.304-5.496 18.126-12.074 26.116-20.062l4.042-4.040c51.116-51.116 51.116-134.272 0-185.388l-218.13-218.134c-51.118-51.102-134.276-51.102-185.388 0l-4.042 4.042c-51.098 51.12-51.098 134.276 0 185.388l98.688 98.686c-17.134 42.306-25.246 87.402-24.538 132.386l-152.602-152.598c-94.136-94.132-94.136-248.178 0-342.324l4.026-4.032c94.152-94.128 248.192-94.128 342.328 0l218.11 218.118c94.134 94.132 94.134 248.194 0 342.326l-4.026 4.024z" />
<glyph unicode="&#xe621;" glyph-name="book" d="M896 832v-832h-672c-53.022 0-96 42.98-96 96 0 53.018 42.978 96 96 96h608v768h-640c-70.398 0-128-57.6-128-128v-768c0-70.4 57.602-128 128-128h768v896h-64zM256 128h576v-64h-576z" />
<glyph unicode="&#xe622;" glyph-name="facetime-video" d="M1024 749.714v-621.714q0-24-22.286-33.714-7.429-2.857-14.286-2.857-15.429 0-25.714 10.857l-230.286 230.286v-94.857q0-68-48.286-116.286t-116.286-48.286h-402.286q-68 0-116.286 48.286t-48.286 116.286v402.286q0 68 48.286 116.286t116.286 48.286h402.286q68 0 116.286-48.286t48.286-116.286v-94.286l230.286 229.714q10.286 10.857 25.714 10.857 6.857 0 14.286-2.857 22.286-9.714 22.286-33.714z" />
<glyph unicode="&#xe623;" glyph-name="interactive" d="M858.080 430.224c0 54.288-44.146 98.434-98.436 98.434h-1.9c-13.58 38.072-49.696 65.636-92.43 65.636-1.992 0-3.77-0.846-5.704-1.15-13.21 38.7-49.566 66.782-92.7 66.782-11.556 0-22.502-2.376-32.822-6.102v202.96c0 54.276-44.162 98.436-98.42 98.436-54.292 0-98.454-44.16-98.454-98.436v-293.59l-10.384-3.464c-12.372-4.092-120.878-42.746-120.878-129.516 0-8.158-1.224-22.368-2.588-39.546-5.994-74.542-9.716-138.89 5.762-171.444 22.854-48.008 100.228-133.094 128.072-162.966v-118.258h65.636v131.254c0 8.4-3.25 16.54-9.044 22.608-28.586 29.996-106.812 116.448-125.398 155.486-9.196 19.344-2.498 102.466 0.344 137.982 1.572 19.544 2.83 35.684 2.83 44.854 0 29.088 41.37 52.802 65.618 63.18v-62.416c-0.030-0.92-1.3-21.354-23.198-43.21-12.81-12.814-12.81-33.584 0-46.392 6.404-6.41 14.802-9.614 23.198-9.614 8.402 0 16.802 3.204 23.2 9.614 41.222 41.216 42.42 84.068 42.42 88.822v426.616c0 18.072 14.714 32.816 32.83 32.816 18.088 0 32.802-14.728 32.802-32.816v-426.558c0-18.132 14.684-32.802 32.816-32.802 18.13 0 32.802 14.67 32.802 32.802v131.238c0 18.072 14.708 32.832 32.822 32.832 18.090 0 32.806-14.75 32.806-32.832v-131.238c0-18.132 14.68-32.802 32.83-32.802 18.12 0 32.8 14.67 32.8 32.802v98.434c18.12 0 32.804-14.73 32.804-32.816v-98.42c0-18.148 14.712-32.832 32.8-32.832 18.148 0 32.832 14.684 32.832 32.832v64.792c16.064-2.13 28.724-15.512 28.79-33.722 2.482-47.164 7.418-179.060 0.368-222.68-3.708-22.95-48.714-74.802-113.548-107.158-11.1-5.58-18.116-16.922-18.116-29.352v-131.256h65.602v111.65c61.342 35.178 122.288 92.994 130.872 145.598 9.47 58.428 1.342 218.574 0.364 234.928z" />
<glyph unicode="&#xe624;" glyph-name="cases" d="M832 576v128h-416l-128 128h-288v-832l128 576zM192 512l-192-512h832l192 512h-832zM651.928 142.188c-0.442-2.106-6.188-35.104-6.188-35.104-2.738-15.518-17.522-28.084-33.038-28.084h-217.646c-15.516 0-25.866 12.568-23.13 28.084 0 0 5.888 32.998 6.19 35.104 1.646 8.144 7.492 23.378 14.656 30.968 24.78 26.26 53.17 39.95 97.434 44.512 8.892 1.052 16.944 8.49 18.518 17.412 1.086 6.164-15.422 24.426-15.422 24.426-16.916 21.132-21.496 55.676-16.816 82.214 7.23 41 46.094 74.28 86.816 74.28s67.852-33.28 60.622-74.28c-4.654-26.4-21.668-60.73-45.826-81.872 0.118-0.132-22.932-18.606-24.020-24.778-1.486-8.424 3.292-15.522 11.022-17.13 43.582-4.422 67.422-18.184 83.084-44.792 4.496-7.582 4.976-22.816 3.744-30.96z" />
<glyph unicode="&#xe625;" glyph-name="citeulike" d="M817.672 822.448v-748.894h-611.344v748.894h611.344zM955.224 960h-886.448v-1024h886.448v1024zM266.19 777.872h494.168v-101.89h-494.168v101.89zM266.19 595.318h494.168v-101.89h-494.168v101.89zM266.19 412.764h494.168v-101.89h-494.168v101.89zM266.19 230.208h494.168v-101.89h-494.168v101.89z" />
<glyph unicode="&#xe626;" glyph-name="table" horiz-adv-x="951" d="M292.571 164.571v109.714q0 8-5.143 13.143t-13.143 5.143h-182.857q-8 0-13.143-5.143t-5.143-13.143v-109.714q0-8 5.143-13.143t13.143-5.143h182.857q8 0 13.143 5.143t5.143 13.143zM292.571 384v109.714q0 8-5.143 13.143t-13.143 5.143h-182.857q-8 0-13.143-5.143t-5.143-13.143v-109.714q0-8 5.143-13.143t13.143-5.143h182.857q8 0 13.143 5.143t5.143 13.143zM585.143 164.571v109.714q0 8-5.143 13.143t-13.143 5.143h-182.857q-8 0-13.143-5.143t-5.143-13.143v-109.714q0-8 5.143-13.143t13.143-5.143h182.857q8 0 13.143 5.143t5.143 13.143zM292.571 603.428v109.714q0 8-5.143 13.143t-13.143 5.143h-182.857q-8 0-13.143-5.143t-5.143-13.143v-109.714q0-8 5.143-13.143t13.143-5.143h182.857q8 0 13.143 5.143t5.143 13.143zM585.143 384v109.714q0 8-5.143 13.143t-13.143 5.143h-182.857q-8 0-13.143-5.143t-5.143-13.143v-109.714q0-8 5.143-13.143t13.143-5.143h182.857q8 0 13.143 5.143t5.143 13.143zM877.714 164.571v109.714q0 8-5.143 13.143t-13.143 5.143h-182.857q-8 0-13.143-5.143t-5.143-13.143v-109.714q0-8 5.143-13.143t13.143-5.143h182.857q8 0 13.143 5.143t5.143 13.143zM585.143 603.428v109.714q0 8-5.143 13.143t-13.143 5.143h-182.857q-8 0-13.143-5.143t-5.143-13.143v-109.714q0-8 5.143-13.143t13.143-5.143h182.857q8 0 13.143 5.143t5.143 13.143zM877.714 384v109.714q0 8-5.143 13.143t-13.143 5.143h-182.857q-8 0-13.143-5.143t-5.143-13.143v-109.714q0-8 5.143-13.143t13.143-5.143h182.857q8 0 13.143 5.143t5.143 13.143zM877.714 603.428v109.714q0 8-5.143 13.143t-13.143 5.143h-182.857q-8 0-13.143-5.143t-5.143-13.143v-109.714q0-8 5.143-13.143t13.143-5.143h182.857q8 0 13.143 5.143t5.143 13.143zM950.857 786.286v-621.714q0-37.714-26.857-64.571t-64.571-26.857h-768q-37.714 0-64.571 26.857t-26.857 64.571v621.714q0 37.714 26.857 64.571t64.571 26.857h768q37.714 0 64.571-26.857t26.857-64.571z" />
<glyph unicode="&#xe627;" glyph-name="RX" d="M611 33.857c35.997 0 54.001 0 72.001 18.001l287.998 179.999c36.002 18 54.001 54.001 54.001 108v504.001h-1026v-810h612zM53.001 789.856h917.997v-450c0-35.999 0-71.999-89.997-71.999-36.002 0-108.003 18.001-126.001 18.001-17.999-90-71.999-198-144-198h-557.999v701.999zM484.999 591.856c0 72-71.999 144.001-161.998 144.001h-216v-468h89.999v162.001h72l107.998-144-125.996-143.999h125.996l54.001 89.998 72-89.998h108.001l-108.001 143.999 108.001 161.999h-108.001l-72-89.998-54.001 71.999c54.002 17.999 108.002 71.999 108.002 161.999zM197 645.857h126.001c35.999 0 71.999-17.999 71.999-54.001 0-35.998-36.001-72-71.999-72h-126.001v126.001z" />
<glyph unicode="&#xe628;" glyph-name="caduceus" d="M717.797 837.523c-82.399 50.999-108.815-26.792-144.172-54.351-7.049-5.495-13.565-9.211-19.491-11.785l1.245 32.119c16.354 13.339 26.746 33.69 26.483 56.429-0.43 39.673-32.941 71.445-72.596 70.995-39.643-0.44-71.435-32.961-70.995-72.605 0.272-23.618 11.964-44.372 29.713-57.262l1.189-30.565c-5.879 2.444-12.338 5.963-19.349 11.178-35.965 26.772-64.115 103.937-145.35 51.102-159.552-103.787-299.174-80.085-299.174-80.085s39.944-103.637 359.974-115.723c16.691-0.627 62.935 30.48 108.655 10.643l7.789-201.312c-5.355 0.459-8.762 0.729-8.884 0.749l-0.824 0.047-48.724-0.525c-0.413 0.019-1.011 0-1.236 0-22.326-0.028-42.201 7.087-55.858 17.693-13.723 10.728-20.903 23.965-21.081 37.95l-0.019 0.515c0.019 13.958 7.124 27.409 20.839 38.371 1.619 1.292 3.342 2.518 5.139 3.708 12.151-4.671 29.516-4.091 46.834 2.695 27.559 10.803 44.541 33.167 37.969 49.942-6.591 16.784-34.262 21.633-61.784 10.84-16.625-6.525-29.365-17.261-35.451-28.43-5.439-3.024-10.606-6.384-15.371-10.138-20.604-16.205-34.683-40.047-34.683-67.027 0.019 0-0.018-0.403 0.037-1.442 0.469-26.698 14.697-50.081 35.245-65.855 18.001-13.884 41.039-22.664 66.389-24.798-2.125-1.685-4.381-3.22-6.329-5.101-14.611-14.034-21.642-33.925-21.389-55.269 0-0.271-0.010-0.843 0.018-1.629-0.018-24.386 13.808-44.091 31.229-55.653 14.576-10.034 31.781-16.793 50.223-23.121-16.906-5.776-32.127-11.925-44.812-21.887-13.695-10.353-23.477-27.718-23.103-47.264 0.028 0-0.019-0.431 0.037-1.339-0.047-18.189 7.695-36.246 22.476-47.077 8.173-6.14 17.609-10.4 28.365-13.563-1.761-1.658-3.576-3.25-5.131-5.169-9.473-11.785-12.122-26.268-12.057-40.749 0.019-0.423 0-1.142 0.037-2.050-0.018-17.075 7.349-31.771 16.448-41.292 9.034-9.651 18.919-15.445 26.099-20.445 6.75-4.747 10.831-9.951 14.903-19.781 3.127-7.667 8.913-18.245 12.591-31.678l1.189-30.751h21.157l1.319 33.925c2.276 14.406 6.469 32.081 11.411 36.967 3.687 3.633 7.526 6.591 10.344 8.519 1.385 0.946 2.509 1.647 3.258 2.107 21.605 8.19 44.41 30.273 44.044 64.057 0 0 0 0 0 0.685-0.103 15.061-2.78 29.711-12.488 41.619-1.113 1.357-2.461 2.406-3.679 3.624 13.349 3.967 25.509 8.827 36.097 16.231 14.555 9.728 25.331 27.261 24.929 47.154 0.018 0.112 0.018 0.335 0.018 0.701 0.207 19.929-9.932 37.351-23.936 47.535-12.965 9.811-28.477 15.672-45.646 21.091 18.18 6.712 35.124 13.789 49.418 24.049 17.169 11.87 30.676 31.687 30.273 56.017 0 0 0 0 0 0.637 0 21.829-7.245 41.881-22.194 55.839-2.070 1.957-4.251 3.764-6.515 5.486 24.686 2.705 47.068 11.681 64.526 25.491 20.604 16.213 34.693 40.037 34.675 67.025 0 0.019 0 0.019 0 0.674-0.291 27.147-14.595 50.747-35.283 66.632-5.112 3.942-10.635 7.461-16.495 10.551-6.347 10.999-19.302 21.408-36.041 27.541-27.764 10.184-55.305 4.708-61.53-12.217-6.198-16.934 11.288-38.877 39.082-49.061 17.459-6.394 34.824-6.6 46.862-1.676 2.031-1.273 3.979-2.612 5.794-4.026 13.733-10.718 20.951-23.973 21.119-37.968 0-0.084 0-0.178 0-0.449-0.018-13.985-7.113-27.447-20.847-38.418-13.62-10.859-33.597-18.264-56.044-18.507l-48.743-0.571-0.805-0.074c-0.16-0.039-5.487-0.571-13.574-1.47l7.769 200.553c46.225 23.9 95.026-7.685 112.081-6.645 319.685 19.255 357.297 123.781 357.297 123.781s-139.052-26.836-300.905 73.338zM434.63 322.922c-11.224 8.397-15.033 14.125-15.585 26.38v0.627l-0.028 0.299h0.009c0.262 14.753 3.483 22.065 10.465 29.197 7.087 7.114 20.519 13.947 41.639 19.434 3.248 0.861 7.518 1.759 12.319 2.658l3.913-101.082c-0.253 0.084-0.515 0.177-0.759 0.263-22.083 7.151-40.731 14.285-51.974 22.223zM440.771 181.268c-5.673 4.783-7.619 8.088-8.153 19.012l-0.009 0.573c0.411 9.173 2.415 12.514 9.305 18.524 7.029 5.731 20.089 11.497 37.107 17.027 3.342 1.115 6.945 2.426 10.673 3.829l2.845-73.428-11.907 2.219-0.468 0.055c-20.539 2.659-33.467 7.462-39.393 12.189zM493.006 59.096c-8.359 5.627-15.623 10.334-19.958 15.126-4.259 4.925-6.421 8.595-6.739 17.395-0.019 0.533-0.019 0.737-0.019 1.16 0.075 10.933 1.779 15.054 4.026 17.937 2.208 2.873 7.825 6.935 20.379 11.111l3.548 0.619 2.583-66.427c-1.292 1.011-2.453 2.154-3.82 3.080zM556.082 92.355c-0.374-17.523-9.061-24.806-21.896-30.451l-1.097-0.412-0.926-0.514c-0.393-0.225-2.545-1.404-5.673-3.455l2.538 65.342 1.741-0.328c13.048-3.997 18.779-7.994 21.005-10.906 2.294-2.845 4.13-7.292 4.307-18.787 0.001-0.085 0.001-0.197 0.001-0.489zM591.336 220.931c7.049-5.935 9.1-9.23 9.624-18.76 0-0.103 0-0.215 0-0.355-0.459-8.921-2.247-11.766-9.541-17.514-7.281-5.289-20.742-10.316-38.108-14.5l-22.626-3.941 3.033 78.306c7.124-2.649 13.903-5.056 19.93-6.909 17.271-5.187 30.535-10.719 37.688-16.327zM557.899 399.822c21.445-5.045 35.075-11.673 42.303-18.703 7.068-7.021 10.465-14.464 10.877-29.619 0-0.075 0-0.179 0-0.441-0.395-12.018-4.12-17.851-15.194-26.455-11.083-8.143-29.488-15.653-51.262-23.263-2.865-1.019-5.832-2.125-8.818-3.247l4.073 105.013c7.17-1.074 13.527-2.189 18.021-3.285z" />
<glyph unicode="&#xe629;" glyph-name="searchbrain" d="M953.907 168.010c0 9.504-8.146 19.007-23.079 29.869-14.934 10.861-32.583 16.291-54.305 16.291-9.503 0-24.437-6.788-44.801-17.649-21.722-10.861-31.225-20.365-31.225-28.511l-55.663-14.933c-2.715 0-5.431-1.358-6.789-6.788 0-4.073 0-8.146 2.715-13.577 2.715-4.073 5.431-8.146 9.503-9.504 16.292-8.145 33.941-25.794 51.59-54.305 19.007-28.511 28.511-50.232 28.511-66.523h31.225c0 50.232 0 82.815 2.715 97.749 1.358 14.935 5.431 23.079 12.219 23.079 9.503 0 24.437 5.431 46.159 16.292 20.364 10.862 31.225 20.365 31.225 28.51zM1002.781 233.177c8.146 13.575 12.219 27.153 12.219 40.728 0 32.583-10.861 62.451-32.583 90.961-21.721 27.153-51.589 48.875-89.603 65.167-38.014 16.291-78.742 24.437-123.543 24.437-31.226 0-61.093-4.073-89.603-10.861-29.868-6.788-55.663-17.649-78.742-29.867-23.079-13.577-42.087-28.511-55.663-47.517-14.933-19.007-21.722-40.729-21.722-62.451 0-16.292 4.073-29.869 12.219-42.087s20.365-17.649 33.941-17.649c8.146 0 14.933 0 20.364 1.357 6.789 1.358 12.219 1.358 16.292 2.716 4.073 1.357 9.503 2.715 14.934 5.43 5.431 2.716 8.146 5.431 10.861 5.431 1.357 1.358 5.431 4.073 10.861 8.146 6.788 4.073 9.503 6.788 10.861 6.788 28.511 20.365 73.312 29.869 130.332 29.869-4.073 0-6.789-1.358-10.861-4.073-2.715-2.716-4.072-6.789-4.072-10.862s1.357-8.145 4.072-10.861c4.073-2.715 6.789-4.073 10.861-4.073-10.861 0-21.722-1.357-31.225-1.357-10.861-1.358-23.079-2.716-36.656-4.073-13.576-2.716-24.437-5.431-33.94-9.504-10.861-4.073-19.007-10.861-25.795-17.65-6.789-8.145-9.503-17.649-9.503-27.153 0-14.933 5.431-25.794 17.649-33.94s27.153-12.219 43.444-12.219c13.576 0 27.153 2.715 40.729 8.146s25.795 10.861 38.014 19.007c10.861 6.788 21.722 14.933 31.225 21.723 10.861 8.146 20.365 13.575 31.225 19.007 9.503 5.43 19.007 8.146 27.153 8.146 9.503 0 20.365-2.716 33.941-8.146 12.219-4.073 24.437-9.504 35.298-14.933 12.219-5.431 19.007-6.789 23.080-6.789 13.573 0 25.792 5.431 33.938 19.007zM480.096 303.774c0 32.264 10.505 62.844 30.385 88.497 2.899 4.007 5.99 7.899 9.282 11.699-29.477-18.973-62.453-28.243-99.402-28.243-52.947 0-97.749 19.007-135.763 58.379-36.656 36.655-55.663 82.815-55.663 135.762 0 54.305 19.007 99.107 55.663 137.12 38.013 38.014 82.815 57.021 135.763 57.021s97.749-19.007 135.763-57.021c36.655-38.013 55.662-82.815 55.662-137.12 0-49.633-16.703-93.303-48.988-128.769 5.079 3.398 10.437 6.756 16.101 10.088l0.839 0.493 0.86 0.456c30.014 15.89 59.204 26.943 89.227 33.787 14.041 3.335 28.077 5.974 42.041 7.922 6.583 24.793 9.888 50.132 9.888 76.023 0 42.086-8.146 81.457-24.437 119.471-14.933 36.656-36.655 69.239-63.809 96.391-27.153 27.153-58.377 48.875-96.391 65.166-36.655 16.291-76.027 24.437-116.755 24.437s-80.1-8.146-116.756-24.437c-38.013-16.291-69.239-38.013-96.391-65.166s-48.875-59.735-65.166-96.391c-14.934-38.013-23.080-77.385-23.080-119.471 0-62.451 17.649-120.829 52.947-172.418l-146.623-149.339c-10.861-10.861-16.292-23.079-16.292-38.014 0-14.933 5.431-28.509 16.292-39.371 12.219-10.861 24.437-16.291 39.371-16.291 14.933 0 28.51 5.43 38.013 16.291l146.623 147.982c51.59-35.298 108.61-52.948 171.061-52.948 21.709 0 43.027 1.953 63.758 6.221-2.668 10.107-4.023 20.72-4.023 31.793z" />
<glyph unicode="&#xe62a;" glyph-name="multimedia" d="M370.918 656.314c0.047 0.337 0.087 0.674 0.135 1.011 1.41 19.733 4.229 38.055 7.047 56.379s7.047 36.646 11.276 53.56c1.4 0.262 2.819 0.503 4.228 0.755v102.136h-108.529l-49.331-47.922h-156.452v-47.922h264.981l26.645-117.997zM320.312 748.94h-314.312l73.292-193.097h283.645c0.499 14.422 1.484 28.358 2.478 42.284 0.633 8.873 1.275 17.746 2.037 26.619l-47.14 124.194zM201.917 657.325c0-1.409-1.41-2.819-1.41-4.229-1.409 0-1.409-1.409-1.409-1.409 0-1.409 0-2.819 1.409-2.819 0-1.409 0-1.409 1.41-2.819l1.409-1.409c1.409 0 2.819 0 2.819-1.41 4.228 0 8.457 0 12.685-1.409 2.819-1.409 7.047-2.819 9.866-4.228s5.638-2.819 8.457-4.229c2.819-2.819 5.638-5.638 7.047-8.457 1.409 0 1.409-1.41 1.409-2.819 1.409 0 1.409-1.41 2.819-2.819 0-1.409 0-2.819 0-4.228 1.409 0 1.409-1.41 1.409-2.819v-1.409l1.41-5.638v-7.047c0-1.409 0-2.819 0-4.228s-1.41-2.819-1.41-4.229c-1.409 0-2.819-1.409-4.228-1.409 0-1.41-1.409-1.41-4.228-1.41h-85.979c-1.409 0-2.819 0-4.229 1.41-1.409 0-2.819 1.409-4.228 1.409-1.41 1.409-2.819 2.819-2.819 4.229-1.409 1.409-1.409 2.819-1.409 4.228l-1.409 7.047v7.047c-1.409 1.409-1.409 2.819 0 2.819v4.228c0 1.409 0 2.819 0 2.819 0 1.409 1.409 2.819 1.409 2.819s2.819 5.638 5.638 8.457c1.409 1.409 4.229 2.819 7.047 4.229 2.819 2.819 5.638 2.819 9.866 4.228 2.819 1.409 7.047 1.409 11.276 2.819 1.409 0 1.409 0 1.409 0 1.409 1.409 1.409 1.409 2.819 1.409 0 1.409 0 1.409 0 2.819 0 0 0 1.409 0 2.819 0 0 0 1.409-1.409 1.409 0 1.409-1.409 2.819-2.819 4.229-1.409 1.409-2.819 1.409-2.819 2.819-1.409 0-1.409 1.409-1.409 1.409-2.819 1.409-4.229 4.229-7.047 7.047-1.409 2.819-2.819 5.637-4.229 8.457-1.409 2.819-2.819 5.638-4.229 9.866 0 2.819-1.409 5.639-1.409 8.457-1.409 4.229 0 8.457 0 11.276 1.409 4.229 2.819 7.047 5.638 9.867 2.819 2.819 5.638 5.638 8.457 7.047s7.047 2.819 11.276 2.819c4.228 0 8.457-1.409 11.276-2.819 4.229-1.41 7.047-4.229 9.867-7.047 4.228-2.819 5.638-5.638 8.457-9.867 1.409-2.819 2.819-7.047 4.229-11.276 0-2.819 0-5.638 0-8.457 0-4.228-1.409-7.047-1.409-9.866-1.41-2.819-1.41-5.638-2.819-8.457zM716.374 209.114v-107.12c0-2.819-1.41-4.229-2.819-5.638-1.409 0-2.819 0-2.819 0-1.409 0-4.229 0-4.229 1.409l-40.875 39.465v-16.913c0-7.048-2.819-14.095-8.457-19.733-5.637-5.637-12.685-8.457-21.142-8.457h-70.473c-7.047 0-14.095 2.82-19.733 8.457-5.638 5.638-8.457 12.685-8.457 19.733v70.473c0 7.048 2.819 14.097 8.457 19.733 5.638 5.638 12.685 8.457 19.733 8.457h70.473c8.457 0 15.505-2.819 21.142-8.457 5.639-5.637 8.457-12.685 8.457-19.733v-16.913l40.875 39.465c0 1.409 2.819 1.409 4.229 1.409 0 0 1.409 0 2.819 0 1.409-1.408 2.819-2.817 2.819-5.636zM1016.591 567.119c-1.409 19.733-2.819 39.465-5.638 57.789-1.409 19.733-4.229 39.465-7.047 57.788-4.229 16.914-7.047 35.237-12.685 53.56-22.551 2.819-45.103 7.047-67.655 8.457-23.961 2.819-47.922 5.638-71.883 7.047-25.37 1.409-49.331 2.819-74.702 4.229-25.371 0-50.741 1.41-77.521 1.41-25.371 0-50.741-1.41-76.111-1.41-25.371-1.409-50.741-2.819-74.703-4.229s-47.921-4.228-71.883-7.047c-23.961-1.409-46.513-5.638-69.064-8.457-4.229-18.323-8.457-36.646-11.276-53.56-2.819-18.323-5.638-38.055-8.457-57.788-1.409-18.323-4.228-38.056-4.228-57.789-1.41-19.733-2.819-40.875-2.819-60.607 0-21.142 1.409-40.875 2.819-60.607 0-19.733 2.819-39.465 4.228-59.198 1.341-8.708 2.68-17.736 4.019-26.779h48.131c16.914 0 31.009-5.639 43.694-18.324 11.276-11.276 16.914-25.37 16.914-42.284v-34.809c15.975-1.357 31.949-2.307 47.921-3.247 23.961-2.819 49.332-4.228 74.703-4.228 25.37-1.41 50.741-1.41 76.111-1.41 26.78 0 52.151 0 77.521 1.41 25.371 0 49.332 1.409 74.702 4.228 23.961 1.41 47.922 2.819 71.883 5.638 22.552 2.819 45.103 5.638 67.655 9.866 5.638 16.914 8.457 35.237 12.685 53.56 2.819 18.323 5.637 38.056 7.047 56.379 2.819 19.733 4.229 39.465 5.638 59.198s1.409 39.465 1.409 60.607c0 19.733 0 40.874-1.409 60.607zM620.529 381.068v250.886l198.735-125.443-198.735-125.443zM255.476 242.94c19.733 0 35.237-7.047 49.331-19.733 12.685-14.094 19.733-29.599 19.733-49.331 0-18.323-7.047-33.827-19.733-47.922-14.095-12.686-29.599-19.733-49.331-19.733-18.323 0-33.827 7.047-47.922 19.733-12.685 14.095-19.733 29.599-19.733 47.922 0 19.732 7.047 35.237 19.733 49.331 14.095 12.687 29.599 19.733 47.922 19.733zM423.203 341.603c15.504 0 31.009-5.638 42.284-16.914 11.276-12.685 16.914-26.779 16.914-43.693v-212.831c0-16.913-5.638-31.008-16.914-43.693-11.276-11.276-26.78-16.914-42.284-16.914h-334.045c-16.914 0-31.008 5.638-42.285 16.914-12.685 12.685-18.323 26.78-18.323 43.693v212.831c0 16.914 5.638 31.008 18.323 43.693 11.277 11.276 25.371 16.914 42.285 16.914h53.56l11.276 32.418c4.229 8.457 8.457 14.095 16.914 19.733s15.504 8.457 23.961 8.457h121.215c8.457 0 16.914-2.819 25.371-8.457 7.047-5.637 12.685-11.275 15.504-19.733l12.685-32.418h53.559zM255.476 68.166c29.599 0 54.969 9.867 74.702 31.009 21.142 21.142 32.417 46.512 32.417 74.702 0 29.599-11.276 54.969-32.417 76.112-19.733 21.142-45.103 31.008-74.702 31.008-28.189 0-53.559-9.866-74.702-31.008-19.733-21.143-31.009-46.513-31.009-76.112 0-28.19 11.276-53.56 31.009-74.702 21.143-21.142 46.513-31.009 74.702-31.009z" />
<glyph unicode="&#xe62b;" glyph-name="anesthes" d="M980.872 806.857h-938.904c-22.296 0-41.968-18.376-41.968-40.408v-651.464c0-22.032 19.672-44.128 41.968-44.128h938.904c22.296 0 43.128 22.096 43.128 44.128v651.464c0 22.032-20.832 40.408-43.128 40.408zM944 726.857v-352h-285.984c-28.456 0-72.128-50.016-79.336-56.96l-64.12 314.296c-10.632 51.536-65.312 53.608-81.032 3.384l-84.448-268.72h-269.080v360h864zM80 150.857v128h300.024c53.36 0 69.488 127.152 84.968 175.936 28.456-138.872 38.552-326.624 117.368-250.040l92.84 90.104h268.8v-144h-864z" />
<glyph unicode="&#xe62c;" glyph-name="hematology" d="M254.208 800.401c0 3.336 2.944 6.184 6.184 6.184h503.2c3.24 0 6.176-2.848 6.176-6.184v-47.92h-52.832v-29.464h52.832v-38.4h-464.584v-398.912c6.776-2.664 16.872-6.288 30.144-10.216 27.208-7.944 67.56-17.28 119.512-22.104l-2.752-29.36c-108.032 10.128-168.816 38.704-169.992 39.28l0.112 0.4c-9.44 3.928-18.76 8.056-28 12.472v524.224zM514.752 886.913c15.12 0 27.392-12.28 27.392-27.392 0-15.232-12.272-27.504-27.392-27.504-15.136 0-27.408 12.272-27.408 27.504 0 15.12 12.272 27.392 27.408 27.392zM770.56 616.857h-53.608v24.552h53.608v-24.552zM770.56 508.241h-53.608v24.552h53.608v-24.552zM716.952 399.625v24.552h53.608v-24.552h-53.608zM770.56 291.009h-53.608v24.544h53.608v-24.544zM524.080 386.657h-0.6c-55.472 3.528-78.248 63.936-36.72 111.376 35.648 40.56 39.080 55.392 39.392 57.448h0.096c0.192-2.048 3.24-16.984 37.712-58.52 40.056-48.64 15.6-108.344-39.88-110.304zM450.424 176.897v-51.552h-9.912v-49.6h40.168v-125.992h58.92v125.984h43.904v49.6h-9.824v51.552c78.752 7.56 156.336 29.368 228.224 65.792l12.064 6.192v551.528c-0.096 27.888-22.48 50.28-50.368 50.376h-167.92c-2.080 43.016-37.52 77.192-80.928 77.192-43.504 0-78.856-34.168-80.92-77.192h-173.432c-27.88-0.096-50.28-22.488-50.376-50.376v-551.52l12.072-6.192c71.888-36.52 149.568-58.232 228.328-65.792z" />
<glyph unicode="&#xe62d;" glyph-name="oncology" d="M397.144 767.593c23.448 8.728 48.968 18.16 75.064 28.048-117.48 46.664-230.464 99.656-247.136 143.216 0 0-27.008-53.456-13.568-119.072 5.288-25.752 48.28-54.72 104.952-82.424 22.408 8.744 49.768 18.848 80.688 30.232zM708.992 95.057c-11.728-5.52-24.376-11.152-38.28-17.136-37.352-15.968-76.664-30.8-113.104-43.672 11.256-3.56 21.832-6.784 31.136-9.656 164.832-50.344 227.824-85.744 227.824-85.744s4.256 102.296-74.824 141.944c-7.808 4.040-19.080 8.872-32.752 14.264zM304.96 560.689c-11.272 6.336-21.728 12.528-31.032 18.744 36.432 14.592 89.192 33.896 161.72 55.968 107.824 32.992 363.68 118.848 377.128 184.384 13.448 65.624-13.56 119.072-13.56 119.072-32.752-85.744-437.592-207.36-516.672-247.128s-74.712-142.064-74.712-142.064v0.112c-0.12-10.128 0.464-20.696 2.184-31.848 0.464-2.984 0.92-5.984 1.496-9.080 5.288-25.864 48.504-54.936 105.4-82.64l154.832 58.616c-61.152 24.256-121.040 50.352-166.784 75.864zM207.832-61.143c0 0 62.992 35.4 227.816 85.744 107.824 32.88 363.68 118.744 377.128 184.368 13.448 65.632-13.56 118.968-13.56 118.968-32.752-85.624-437.592-207.352-516.672-247.136-79.080-39.648-74.712-141.944-74.712-141.944zM494.616 502.769l180.344 66.776-49.536 14.48-178.968-65.168zM399.672 544.609l192.424 63.216-41.96 12.528-4.936-1.496-186.56-56.096zM625.424 284.713l-178.968-65.168 48.16-16.096 4.48 1.728 175.864 64.944zM550.136 321.033l-191.496-57.576 41.032-18.16 1.496 0.456 190.928 62.76zM207.832 238.737l0.112 0.112c0.464-9.536 1.496-19.528 3.56-29.88 5.288-25.856 48.28-54.824 104.952-82.408 22.408 8.728 49.656 18.736 80.568 30.224 23.56 8.616 49.080 18.168 75.176 27.936-70.92 28.264-140.12 58.728-187.584 87.92 10.344 4.152 21.952 8.496 34.592 13.104 31.264 11.384 69.768 24.496 116.44 38.736 20.808 6.32 47.36 14.72 76.552 24.6 29.080-9.88 55.624-18.28 76.544-24.6 46.672-14.24 85.064-27.352 116.328-38.736 54.832 30.576 65.52 47.36 67.584 52.648l5.52 14.368c-9.544 10.808-21.496 20.464-36.44 27.928-14.256 7.248-39.088 17.016-70.344 28.856 73.904 32.4 135.056 68.152 141.376 99.304 0.696 3.096 1.144 6.096 1.616 9.080 1.608 11.152 2.288 21.72 2.064 31.848l0.112-0.112c0 0 4.256 102.296-74.824 142.064-7.816 3.904-19.080 8.736-32.752 14.256-11.728-5.52-24.376-11.272-38.28-17.24-37.352-15.872-76.664-30.688-113.104-43.568 11.256-3.68 21.832-6.904 31.136-9.776 72.312-22.064 124.944-41.264 161.392-55.848-9.432-6.208-20-12.416-31.384-18.744-49.072-27.008-114.368-54.712-180.352-80.336-89.544-34.832-180.112-65.848-231.72-86.552-12.528-5.048-22.76-9.432-30.12-13.216-12.872-6.44-23.448-14.592-31.952-23.792-44.008-46.552-36.768-118.176-36.768-118.176z" />
<glyph unicode="&#xe62e;" glyph-name="ortho" d="M193.128 482.153c0.56 32.992 20.384 60.936 48.68 73.536-17.872-26.688-23.832-57.504-19.128-86.144 7.2-44.088 41.56-68.488 41.56-68.488-40.2 5.84-71.808 39.52-71.112 81.096zM264.936 452.713c-21.656 35.848-7.56 80.52 21.992 104.568 53.040 43.072 426.32 276.84 426.32 276.84l-82.232 108.816c-295.976-153.128-467.664-355.072-467.664-454.48 0-126.224 194.592-388.176 348.648-553.68l43.4 17.752c-54.28 75.832-210.976 286-261.368 361.488-8.704 12.944-25.312 37.112-15.232 77.424 0 0 69.768-34.36 127.704 13.408 34.832-18.216 23.376-71.584 31.616-99.648 18.208-61.856 149.248-272.952 182.584-326.096l98.16 40.088c0 0-51.784 104.688-63.104 151.536-21.080 86.712-45.368 202.28-166.448 283.024 11.128 15.008 26.808 26.688 50.624 34.712 63.696 21.416 206.864 30.928 320.712 150.96l-80.736 106.64c-106.976-56.584-296.328-161.96-367.216-285.312-38.728-67.368-122.68-49.728-147.76-8.040z" />
<glyph unicode="&#xe62f;" glyph-name="radiology" d="M282.568 426.889c4.088-16 10.216-30.792 17.808-44.264-53.056 13.592-92.264 60.632-92.264 116.68 0 59.456 43.912 108.776 101.776 118.872-32.136-65.568-42.36-132.944-27.32-191.288zM140.368 270.145h-55.456v30.072h55.456v-30.072zM140.368 210.345h-55.456v34.28h55.456v-34.28zM140.368 134.689h-55.456v50.032h55.456v-50.032zM140.368 58.881h-55.456v50.168h55.456v-50.168zM409.848 363.377c-96.008 35.128-100.216 180.92 8.904 308.568 26.584 31.168 106.712 137.136 171.672 224h-533.912c-24.424 0-44.264-19.36-44.264-43.304v-839.72c0-23.944 19.84-43.304 44.264-43.304h385.456c-20.328 82.28-52.56 206.792-77.232 273.088-11.064 29.832-1.080 50.528 20.096 65.456l2.040-0.84c29.12-11.44 66.288-17.928 101.904-17.928 43.672 0 88.424 10.104 125.72 33.56 8.064-9.384 12.496-22.016 12.032-39.096-2.048-71.936 10.456-231.72 17.44-314.232h62.080c-4.568 54.488-12.032 147.368-15.64 223.16l86.256-223.16h189.84c24.416 0 44.264 19.36 44.264 43.304v839.72c0 23.944-19.848 43.304-44.264 43.304h-150.504c-63.88-80.968-173.48-243.376-175.168-392.296-1.32-116.224-92.272-190.944-230.984-140.28z" />
<glyph unicode="&#xe630;" glyph-name="surgery" d="M892.16-41.719h-80.592c-13.184 0-23.88 10.68-23.88 23.88 0 13.168 10.688 23.872 23.88 23.872h80.592c13.184 0 23.88-10.704 23.88-23.872-0.008-13.2-10.696-23.88-23.88-23.88zM716.048-41.719h-95.512c-13.184 0-23.88 10.68-23.88 23.88 0 13.168 10.688 23.872 23.88 23.872h95.512c13.184 0 23.88-10.704 23.88-23.872 0-13.2-10.688-23.88-23.88-23.88zM525.016-41.719h-95.52c-13.184 0-23.88 10.68-23.88 23.88 0 13.168 10.696 23.872 23.88 23.872h95.52c13.184 0 23.88-10.704 23.88-23.872 0-13.2-10.696-23.88-23.88-23.88zM333.984-41.719h-95.512c-13.184 0-23.88 10.68-23.88 23.88 0 13.168 10.688 23.872 23.88 23.872h95.512c13.184 0 23.88-10.704 23.88-23.872 0-13.2-10.696-23.88-23.88-23.88zM142.952-41.719h-95.512c-13.184 0-23.88 10.68-23.88 23.88 0 13.168 10.688 23.872 23.88 23.872h95.512c13.184 0 23.88-10.704 23.88-23.872 0-13.2-10.688-23.88-23.88-23.88zM987.832 908.617c-4.976 4.64-14.704 10.824-41.648 10.824-30.080 0-86.808-9.344-110.744-34.168l-472.176-517.112c-1.424-1.56-2.568-3.368-3.368-5.336l-1.84-4.544c-3.896-9.848-8.752-22.784-21.312-34.952-25.912-24.912-300.752-300.472-300.752-300.472h135.56l-0.072 0.768c58.304 1.376 138.544 21.144 203.464 102.104 36.504 45.592 40.144 95.464 42.368 125.8 0.44 5.848 1.056 14.112 1.928 18.96 1.52 0.216 3.216 0.472 4.072 0.56 13.248 1.536 35.408 4.12 67.328 25.336 0.88 0.584 1.696 1.256 2.464 2.008l473.52 453.088c0.544 0.52 1.072 1.112 1.552 1.704 0.392 0.376 0.744 0.736 1.056 1.040 18.296 18.84 26.024 53.56 29.304 79.536 6.72 57.856-6.168 70.432-10.704 74.856zM445.12 377.185l-17.568 16.184 434.056 471.256 17.568-16.168-434.056-471.272z" />
<glyph unicode="&#xe631;" glyph-name="cells" horiz-adv-x="1317" d="M1253.102 627.553l-283.045 141.521-259.457-129.728-165.108 82.554v235.868h-47.175v-212.283l-47.175 23.585v188.696h-47.175v-212.283l-235.868-117.937v-344.038l-134.634-134.634 33.353-33.353 123.501 123.501 260.823-130.387 259.457 129.728 259.457-129.728v-188.696h47.175v212.283l235.868 117.937v377.39zM215.278 279.314v319.084l235.868 117.937 235.868-117.937v-319.084l-235.868-117.937-235.868 117.937zM1205.93 279.314l-235.868-117.937-235.868 117.937v319.084l235.868 117.937 235.868-117.937v-319.084zM440.343 204.613l-188.684 94.341 21.097 42.191 188.684-94.341-21.097-42.191zM781.364 556.794h47.175v-235.868h-47.175v235.868zM1170.166 577.664l-21.097-42.191-188.684 94.341 21.097 42.191 188.684-94.341z" />
<glyph unicode="&#xe632;" glyph-name="clipboard" horiz-adv-x="951" d="M621.714 841.143h-73.143v109.714h-146.286v-109.714h-73.143v-73.143h292.571zM694.857 841.143v-146.286h-438.857v146.286h-146.286v-914.286h731.429v914.286h-146.286zM438.015 73.143c-83.858 100.206-182.565 176.53-251.611 200.338l162.816 95.415 78.921-147.895c0 0 128.219 300.581 330.496 400.713-4.901-71.57-24.686-133.522 9.838-209.883l0.037-0.037c-88.795-19.090-271.323-233.728-330.496-338.651z" />
<glyph unicode="&#xe633;" glyph-name="paper" horiz-adv-x="1097" d="M877.715 804.571v-804.571h-585.143v-73.143h658.286v877.714zM804.573 73.143v877.714h-658.286v-877.714h658.286zM219.43 877.714h512v-731.429h-512v731.429zM292.573 402.286h365.714v-73.143h-365.714v73.143zM292.573 548.571h365.714v-73.143h-365.714v73.143zM292.573 694.857h365.714v-73.143h-365.714v73.143z" />
<glyph unicode="&#xe634;" glyph-name="updates" horiz-adv-x="951" d="M802.633 729.49l-103.241-103.241c42.569-50.798 68.571-115.931 68.571-187.429 0-161.573-130.999-292.571-292.571-292.571v73.143l-146.286-146.286 146.286-146.286v73.143c242.359 0 438.857 196.498 438.857 438.857 0.037 111.909-42.606 213.285-111.616 290.67zM475.428 731.428v-73.143l146.286 146.286-146.286 146.286v-73.143c-242.359 0-438.857-196.498-438.857-438.857 0-102.583 35.511-196.571 94.537-271.177l104.375 104.375c-33.024 47.323-52.626 104.704-52.626 166.802 0 161.573 130.999 292.571 292.571 292.571z" />
<glyph unicode="&#xe635;" glyph-name="female" d="M812.8 652.8c0 169.6-134.4 307.2-304 307.2s-300.8-137.6-300.8-307.2c0-144 80-265.6 240-297.6v-99.2h-128v-128h128v-192h128v192h128v128h-128v99.2c160 32 236.8 153.6 236.8 297.6zM332.8 652.8c0 99.2 80 179.2 179.2 179.2s179.2-80 179.2-179.2-80-179.2-179.2-179.2-179.2 80-179.2 179.2z" />
<glyph unicode="&#xe636;" glyph-name="baby" d="M656 816c0-79.529-64.471-144-144-144s-144 64.471-144 144c0 79.529 64.471 144 144 144s144-64.471 144-144zM428.8-64c9.6 0 35.2 0 35.2 0 12.8 0 22.4 9.6 22.4 22.4v86.4c0 12.8-6.4 22.4-16 28.8-22.4 12.8-51.2 41.6-57.6 60.8s19.2 44.8 38.4 60.8c9.6 9.6 9.6 22.4 3.2 32l-67.2 73.6c-6.4 9.6-19.2 9.6-28.8 3.2-28.8-19.2-86.4-64-96-83.2-12.8-25.6-9.6-76.8 22.4-118.4s131.2-96 131.2-128c0 0 0-16 0-19.2-3.2-12.8 3.2-19.2 12.8-19.2zM595.2-64c-9.6 0-35.2 0-35.2 0-12.8 0-22.4 9.6-22.4 22.4v86.4c0 12.8 6.4 22.4 16 28.8 22.4 12.8 51.2 41.6 57.6 60.8s-19.2 44.8-38.4 60.8c-9.6 9.6-9.6 22.4-3.2 32l67.2 73.6c6.4 9.6 19.2 9.6 28.8 3.2 28.8-19.2 86.4-64 96-83.2 12.8-25.6 9.6-76.8-22.4-118.4s-131.2-96-131.2-128c0 0 0-16 0-19.2 3.2-12.8-3.2-19.2-12.8-19.2zM633.6 643.2c-3.2 3.2-9.6 6.4-16 6.4h-211.2c-6.4 0-12.8-3.2-16-6.4l-201.6-204.8c-12.8-12.8-9.6-28.8 3.2-41.6l22.4-19.2c9.6-9.6 25.6-9.6 35.2 0l115.2 105.6v-108.8c0-3.2 3.2-6.4 6.4-6.4h278.4c3.2 0 6.4 3.2 6.4 6.4v108.8l118.4-108.8c9.6-9.6 25.6-9.6 35.2 0l25.6 19.2c12.8 9.6 12.8 28.8 3.2 41.6l-204.8 208z" />
<glyph unicode="&#xe637;" glyph-name="psychiatry" d="M174.080 325.12c-20.48 0-35.84 0-53.76 0-33.28 0-48.64 25.6-33.28 56.32 20.48 35.84 40.96 74.24 64 110.080 12.8 23.040 17.92 43.52 10.24 69.12-5.12 15.36-2.56 35.84-2.56 53.76 0 7.68 5.12 10.24 12.8 10.24 46.080 0 92.16 0 135.68 0 10.24 0 10.24-5.12 12.8-12.8 17.92-74.24 35.84-148.48 53.76-222.72 0-5.12 2.56-7.68 2.56-12.8 5.12-12.8 10.24-23.040 25.6-23.040s20.48 10.24 23.040 23.040c5.12 20.48 7.68 38.4 12.8 58.88 15.36 81.92 30.72 161.28 46.080 248.32 2.56-7.68 2.56-10.24 5.12-12.8 20.48-81.92 40.96-166.4 58.88-248.32 0-2.56 0-5.12 2.56-5.12 5.12-17.92 15.36-28.16 28.16-25.6 15.36 2.56 23.040 12.8 25.6 28.16 12.8 61.44 25.6 125.44 38.4 186.88 7.68-30.72 15.36-61.44 23.040-94.72 2.56-10.24 5.12-20.48 7.68-28.16 5.12-20.48 12.8-28.16 25.6-28.16 17.92 0 23.040 12.8 25.6 25.6 12.8 40.96 25.6 81.92 38.4 122.88 7.68 25.6 2.56 23.040 30.72 23.040 38.4 0 79.36 0 117.76 0 12.8 0 15.36-5.12 17.92-15.36 20.48-115.2-12.8-217.6-79.36-309.76-30.72-43.52-40.96-89.6-46.080-140.8-5.12-56.32 0-112.64 12.8-168.96 0-2.56 0-5.12 0-10.24-5.12 0-10.24 0-15.36 0-120.32 0-240.64 0-360.96 0-12.8 0-17.92 2.56-17.92 15.36-2.56 10.24-5.12 20.48-7.68 30.72-7.68 30.72-25.6 46.080-56.32 48.64-38.4 2.56-76.8 0-117.76 2.56-46.080 0-69.12 23.040-69.12 69.12 0 53.76 0 110.080 0 163.84 2.56 0 2.56 5.12 2.56 12.8zM576 550.4c-7.68 28.16-12.8 56.32-20.48 84.48-15.36 58.88-28.16 120.32-43.52 179.2 0 2.56 0 5.12 0 7.68-5.12 12.8-12.8 20.48-25.6 20.48-15.36 0-23.040-10.24-25.6-25.6-5.12-23.040-7.68-43.52-12.8-66.56-15.36-79.36-30.72-156.16-48.64-235.52-5.12 25.6-12.8 48.64-17.92 74.24-5.12 20.48-10.24 40.96-15.36 61.44-5.12 17.92-10.24 23.040-28.16 23.040-53.76 0-104.96 0-158.72 0 33.28 110.080 163.84 235.52 360.96 238.080 194.56 2.56 337.92-120.32 373.76-238.080-30.72 0-61.44 0-92.16 0-20.48 0-40.96 0-64 0-15.36 0-25.6-7.68-30.72-23.040-7.68-23.040-15.36-46.080-23.040-71.68-7.68 35.84-17.92 66.56-25.6 97.28-5.12 20.48-10.24 38.4-15.36 58.88-5.12 17.92-15.36 25.6-28.16 25.6-15.36-2.56-23.040-12.8-25.6-25.6-5.12-58.88-17.92-120.32-33.28-184.32 2.56 0 2.56 0 0 0z" />
<glyph unicode="&#xea99;" glyph-name="youtube3" d="M293.188 960l-69.188-137.234-69.188 137.234h-88.248l124.71-217.314 0.726 0.43v-167.116h64v167.116l0.726-0.43 124.71 217.314zM480 832c17.346 0 32-14.654 32-32v-128c0-17.346-14.654-32-32-32s-32 14.654-32 32v128c0 17.346 14.654 32 32 32zM480 896c-52.8 0-96-43.2-96-96v-128c0-52.8 43.2-96 96-96s96 43.2 96 96v128c0 52.8-43.2 96-96 96v0zM768 896v-251.968c-27.922-23.288-64-37.332-64 45.634v206.334h-64v-219.324h0.096c0.986-52.91 12.142-148.168 127.904-70.712v-29.964h64v320h-64zM864 256c-17.644 0-32-14.356-32-32v-32h64v32c0 17.644-14.356 32-32 32zM576 224v-168c21.666-21.666 64-24 64 8s0 118 0 150-32 42-64 10zM1018.766 378.46c-2.792 36.862-16.046 66.942-39.778 90.244-23.726 23.298-54.080 35.994-91.068 38.080-69.784 3.478-229.452 5.216-369.716 5.216-140.266 0-311.294-1.738-381.078-5.216-36.986-2.086-67.342-14.782-91.068-38.080-23.728-23.302-36.988-53.382-39.778-90.244-4.188-75.116-6.28-102.352-6.28-139.91 0-37.56 2.092-93.894 6.28-169.012 2.792-36.862 16.050-66.944 39.778-90.244 23.726-23.298 54.082-35.992 91.068-38.080 69.782-3.476 240.81-5.214 381.078-5.214 140.266 0 299.934 1.738 369.716 5.214 36.988 2.088 67.342 14.782 91.068 38.080 23.73 23.3 36.986 53.382 39.778 90.244 3.49 62.598 5.234 118.934 5.234 169.012 0 50.076-1.744 77.314-5.234 139.91zM192 0h-64v320h-64v64h192v-64h-64v-320zM448 0h-64v29.962c-121.666-68.294-126.918-2.198-127.904 50.712h-0.096v175.326h64v-176.334c0-38.666 36.078-34.924 64-11.634v187.968h64v-256zM704 64.914c0-66.892-68.504-86.402-128-34.39v-30.524h-64v384h64v-104c64 64 128 40 128-24s0-121.172 0-191.086zM960 192v-32h-128v-64c0-17.644 14.356-32 32-32s32 14.356 32 32v32h64v-32c0-52.934-43.066-96-96-96s-96 43.066-96 96v128c0 52.934 43.066 96 96 96s96-43.066 96-96v-32z" />
</font>
</defs>
</svg>
